<?xml version="1.0" encoding="utf-8"?>
<!-- Generator: Adobe Illustrator 21.1.0, SVG Export Plug-In . SVG Version: 6.00 Build 0)  -->
<svg version="1.1" id="Слой_1" xmlns="http://www.w3.org/2000/svg" xmlns:xlink="http://www.w3.org/1999/xlink" x="0px" y="0px"
	 width="198px" height="24.9px" viewBox="0 0 198 24.9" style="enable-background:new 0 0 198 24.9;" xml:space="preserve">
<style type="text/css">
	.st0{fill:#2A7BA7;}
</style>
<g id="XMLID_17_">
	<path id="XMLID_146_" class="st0" d="M20.2,15.6C20.1,12.8,20,9.4,20,6h-0.1c-0.7,3-1.7,6.3-2.6,9l-2.7,8.7
		c-0.1,0.2-0.3,0.4-0.5,0.4h-3.3c-0.2,0-0.5-0.2-0.5-0.4l-2.4-8.6c-0.8-2.7-1.6-6-2.1-9.1H5.7c-0.1,3.1-0.2,6.7-0.4,9.6L4.9,24
		c0,0.3-0.3,0.5-0.5,0.5H0.5c-0.3,0-0.6-0.3-0.5-0.6L1.4,1.8c0-0.3,0.3-0.5,0.5-0.5h6.1c0.2,0,0.5,0.2,0.5,0.4L10.7,9
		c0.7,2.7,1.5,5.6,2,8.3h0.1c0.7-2.7,1.5-5.8,2.2-8.4l2.4-7.4c0.1-0.2,0.3-0.4,0.5-0.4h6c0.3,0,0.5,0.2,0.5,0.5l1.2,22.2
		c0,0.3-0.2,0.6-0.5,0.6H21c-0.3,0-0.5-0.2-0.5-0.5L20.2,15.6z"/>
	<path id="XMLID_144_" class="st0" d="M46.7,23.6c0,0.2-0.1,0.3-0.2,0.4c-1.1,0.4-3.1,0.9-5.7,0.9c-8,0-12.2-5-12.2-11.6
		c0-7.9,5.7-12.4,12.7-12.4c2.5,0,4.4,0.5,5.5,0.9C47,1.8,47,2,47,2.2l-0.9,3.5C46,5.9,45.8,6,45.6,5.9c-1-0.4-2.4-0.7-4.1-0.7
		c-4.2,0-7.4,2.5-7.4,7.7c0,4.7,2.8,7.6,7.5,7.6c1.4,0,3-0.3,4-0.6c0.2-0.1,0.4,0.1,0.4,0.3L46.7,23.6z"/>
	<path id="XMLID_142_" class="st0" d="M50.2,24.3V1.4c0-0.1,0.1-0.2,0.2-0.2h5.8c0.1,0,0.1,0,0.2,0.1l4.8,8.4c1.4,2.5,2.8,5.4,3.8,8
		h0.1c-0.3-3.1-0.4-6.2-0.4-9.7V1.4c0-0.1,0.1-0.2,0.2-0.2h4.4c0.1,0,0.2,0.1,0.2,0.2v22.9c0,0.1-0.1,0.2-0.2,0.2h-5.2
		c-0.1,0-0.1,0-0.2-0.1L59,15.5c-1.4-2.5-2.9-5.5-4-8.2l-0.1,0c0.1,3.1,0.2,6.4,0.2,10.2v6.8c0,0.1-0.1,0.2-0.2,0.2h-4.4
		C50.3,24.5,50.2,24.4,50.2,24.3z"/>
	<path id="XMLID_139_" class="st0" d="M98.8,16.7c0.1,4.1,2.7,5.8,5.7,5.8c2.1,0,3.4-0.4,4.5-0.8c0.1,0,0.1,0,0.2,0.1l0.5,2
		c0,0.1,0,0.1-0.1,0.1c-1.1,0.5-2.9,1-5.5,1c-5.1,0-8.2-3.4-8.2-8.4c0-5,3-9,7.8-9c5.5,0,6.9,4.8,6.9,7.9c0,0.6-0.1,1.1-0.1,1.4
		H98.8z M107.7,14.5c0-1.9-0.8-4.9-4.2-4.9c-3.1,0-4.4,2.8-4.7,4.9H107.7z"/>
	<path id="XMLID_137_" class="st0" d="M114.7,0h2.6c0.1,0,0.2,0.1,0.2,0.2v24c0,0.1-0.1,0.2-0.2,0.2h-2.6c-0.1,0-0.2-0.1-0.2-0.2
		v-24C114.4,0.1,114.5,0,114.7,0z"/>
	<path id="XMLID_134_" class="st0" d="M124.3,16.7c0.1,4.1,2.7,5.8,5.7,5.8c2.1,0,3.4-0.4,4.6-0.8c0,0,0.1,0,0.1,0l0.5,2
		c0,0,0,0.1,0,0.1c-1.1,0.5-2.9,1-5.5,1c-5.1,0-8.2-3.4-8.2-8.4c0-5,3-9,7.8-9c5.5,0,6.9,4.8,6.9,7.9c0,0.6-0.1,1.1-0.1,1.4H124.3z
		 M133.2,14.5c0-1.9-0.8-4.9-4.2-4.9c-3.1,0-4.4,2.8-4.7,4.9H133.2z"/>
	<path id="XMLID_26_" class="st0" d="M151.8,23.8c0,0.1,0,0.1-0.1,0.2c-0.8,0.4-2.5,0.9-4.7,0.9c-5,0-8.3-3.4-8.3-8.5
		c0-5.1,3.5-8.9,9-8.9c1.7,0,3.2,0.4,4.1,0.8c0.1,0,0.1,0.1,0.1,0.2l-0.6,2c0,0.1-0.1,0.1-0.2,0.1c-0.7-0.4-1.8-0.7-3.4-0.7
		c-3.8,0-5.9,2.8-5.9,6.3c0,3.9,2.5,6.2,5.8,6.2c1.6,0,2.7-0.4,3.6-0.8c0.1,0,0.2,0,0.2,0.1L151.8,23.8z"/>
	<path id="XMLID_23_" class="st0" d="M170.3,16c0,6.2-4.3,8.9-8.3,8.9c-4.5,0-8-3.3-8-8.6c0-5.6,3.7-8.9,8.3-8.9
		C167,7.4,170.3,10.9,170.3,16z M157,16.2c0,3.7,2.1,6.4,5.1,6.4c2.9,0,5.1-2.7,5.1-6.5c0-2.8-1.4-6.4-5-6.4
		C158.6,9.7,157,13,157,16.2z"/>
	<path id="XMLID_21_" class="st0" d="M174.1,12.3c0-1.6,0-2.9-0.1-4.2c0-0.2,0.1-0.3,0.3-0.3h2.1c0.1,0,0.3,0.1,0.3,0.3l0.1,2.4h0.1
		c0.9-1.6,2.5-3.1,5.2-3.1c2.3,0,4,1.4,4.7,3.3h0.1c0.5-0.9,1.2-1.7,1.9-2.2c1-0.8,2.1-1.2,3.7-1.2c2.2,0,5.5,1.5,5.5,7.3v9.6
		c0,0.1-0.1,0.3-0.3,0.3h-2.4c-0.1,0-0.3-0.1-0.3-0.3v-9.2c0-3.2-1.2-5.1-3.6-5.1c-1.7,0-3.1,1.3-3.6,2.8c-0.1,0.4-0.2,1-0.2,1.5
		v10.1c0,0.1-0.1,0.3-0.3,0.3h-2.4c-0.1,0-0.3-0.1-0.3-0.3v-9.7c0-2.7-1.2-4.6-3.5-4.6c-1.9,0-3.3,1.5-3.8,3c-0.2,0.4-0.2,1-0.2,1.5
		v9.8c0,0.1-0.1,0.3-0.3,0.3h-2.4c-0.1,0-0.3-0.1-0.3-0.3V12.3z"/>
	<g id="XMLID_18_">
		<path id="XMLID_19_" class="st0" d="M87.5,2.7h-7.2c-0.1,0-0.2-0.1-0.2-0.2V0.2C80,0.1,80.1,0,80.2,0H98c0.1,0,0.2,0.1,0.2,0.2
			v2.3c0,0.1-0.1,0.2-0.2,0.2h-7.3v21.6c0,0.1-0.1,0.2-0.2,0.2h-2.8c-0.1,0-0.2-0.1-0.2-0.2V2.7z"/>
	</g>
</g>
</svg>
